<svg width="23" height="23" viewBox="0 0 23 23" fill="none" xmlns="http://www.w3.org/2000/svg">
<path fill-rule="evenodd" clip-rule="evenodd" d="M0.177277 0.177277C0.413647 -0.0590925 0.796879 -0.0590925 1.03325 0.177277L11.5 10.644L21.9668 0.177277C22.2031 -0.0590925 22.5864 -0.0590925 22.8227 0.177277C23.0591 0.413647 23.0591 0.796879 22.8227 1.03325L12.356 11.5L22.8227 21.9668C23.0591 22.2031 23.0591 22.5864 22.8227 22.8227C22.5864 23.0591 22.2031 23.0591 21.9668 22.8227L11.5 12.356L1.03325 22.8227C0.796879 23.0591 0.413647 23.0591 0.177277 22.8227C-0.0590925 22.5864 -0.0590925 22.2031 0.177277 21.9668L10.644 11.5L0.177277 1.03325C-0.0590925 0.796879 -0.0590925 0.413647 0.177277 0.177277Z" fill="#1A1344"/>
</svg>
