<svg width="13" height="13" viewBox="0 0 13 13" fill="none" xmlns="http://www.w3.org/2000/svg">
<path d="M6.11694 9.59128C6.11714 9.59149 6.11735 9.59164 6.11752 9.59182C6.12997 9.60421 6.14302 9.61599 6.15663 9.62716C6.16292 9.63234 6.16955 9.63681 6.17602 9.64166C6.18369 9.6474 6.19121 9.65336 6.19921 9.65869C6.20692 9.66387 6.21495 9.66834 6.22287 9.67307C6.23011 9.67738 6.23719 9.68193 6.24463 9.68591C6.2527 9.69023 6.26103 9.69391 6.26928 9.69779C6.27705 9.70148 6.2847 9.70534 6.29267 9.70866C6.30067 9.71196 6.30884 9.71465 6.31697 9.71755C6.32552 9.72062 6.33395 9.7239 6.34269 9.72654C6.35081 9.729 6.35909 9.7308 6.36729 9.73286C6.3762 9.73512 6.38501 9.73761 6.39408 9.73941C6.4036 9.74129 6.4132 9.74241 6.42277 9.7438C6.43067 9.74492 6.43843 9.74644 6.44646 9.74723C6.482 9.75074 6.51783 9.75074 6.55338 9.74723C6.56137 9.74644 6.56914 9.74495 6.57707 9.7438C6.58664 9.74243 6.59626 9.74131 6.60576 9.73941C6.61485 9.73761 6.62363 9.73512 6.63254 9.73286C6.64077 9.7308 6.64902 9.729 6.65715 9.72654C6.66588 9.7239 6.67434 9.72062 6.68287 9.71755C6.69099 9.71463 6.69917 9.71196 6.70717 9.70866C6.71514 9.70536 6.72278 9.70148 6.73055 9.69779C6.7388 9.69391 6.74713 9.69025 6.75521 9.68591C6.76264 9.68193 6.76973 9.67738 6.77696 9.67307C6.78489 9.66834 6.79291 9.66385 6.80063 9.65869C6.80863 9.65334 6.81614 9.6474 6.82381 9.64166C6.83028 9.63681 6.83691 9.63231 6.84321 9.62716C6.85679 9.61601 6.86987 9.60423 6.88231 9.59182C6.88251 9.59164 6.88272 9.59146 6.88289 9.59128L9.59121 6.88296C9.80274 6.67143 9.80274 6.32846 9.59121 6.11693C9.37969 5.90541 9.03671 5.90541 8.82518 6.11693L7.04156 7.90056V0.541654C7.04161 0.242504 6.79911 0 6.49996 0C6.20081 0 5.9583 0.242504 5.9583 0.541654V7.90056L4.17468 6.11693C3.96315 5.90541 3.62017 5.90541 3.40865 6.11693C3.19712 6.32846 3.19712 6.67143 3.40865 6.88296L6.11694 9.59128Z" fill="#00CE2D"/>
<path d="M12.4582 9.20825C12.1591 9.20825 11.9166 9.45076 11.9166 9.74991V11.9165H1.08333V9.74991C1.08333 9.45076 0.840829 9.20825 0.541679 9.20825C0.242504 9.20825 0 9.45076 0 9.74991V12.4582C0 12.7574 0.242504 12.9999 0.541654 12.9999H12.4582C12.7574 12.9999 12.9999 12.7574 12.9999 12.4582V9.74991C12.9999 9.45076 12.7574 9.20825 12.4582 9.20825Z" fill="#00CE2D"/>
</svg>
