<svg width="24" height="23" viewBox="0 0 24 23" fill="none" xmlns="http://www.w3.org/2000/svg">
<path d="M1 0H9.5C9.77614 0 10 0.223858 10 0.5C10 0.776142 9.77614 1 9.5 1H1V0Z" fill="#1A1344"/>
<path d="M0.5 23C0.223858 23 -9.78513e-09 22.7761 -2.18557e-08 22.5L-9.83506e-07 0.5C-9.95577e-07 0.223858 0.223857 -9.78513e-09 0.499999 -2.18557e-08L1 -4.37114e-08L1 23L0.5 23Z" fill="#1A1344"/>
<path d="M1 22H9.5C9.77614 22 10 22.2239 10 22.5C10 22.7761 9.77614 23 9.5 23H1V22Z" fill="#1A1344"/>
<path d="M23.8535 11.6465L16.3535 4.1465C16.1582 3.95117 15.8418 3.95117 15.6465 4.1465C15.4512 4.34182 15.4512 4.65823 15.6465 4.85351L22.293 11.5H5.50002C5.22364 11.5 5 11.7237 5 12C5 12.2764 5.22364 12.5 5.50002 12.5H22.293L15.6465 19.1465C15.4512 19.3418 15.4512 19.6582 15.6465 19.8535C15.7441 19.9512 15.8721 20 16 20C16.1279 20 16.2559 19.9512 16.3535 19.8535L23.8535 12.3535C24.0488 12.1582 24.0488 11.8418 23.8535 11.6465Z" fill="#1A1344"/>
</svg>
