<svg width="20" height="20" viewBox="0 0 20 20" fill="none" xmlns="http://www.w3.org/2000/svg">
<g clip-path="url(#clip0)">
<path d="M19.9259 9.76333C19.7684 9.53415 15.9834 4.16656 9.99995 4.16656C4.86569 4.16656 0.29062 9.50333 0.0981168 9.73083C-0.0327056 9.88583 -0.0327056 10.1133 0.0981168 10.2692C0.29062 10.4967 4.86569 15.8334 9.99995 15.8334C15.1342 15.8334 19.7092 10.4967 19.9017 10.2692C20.0226 10.1258 20.0334 9.91833 19.9259 9.76333ZM9.99995 15.0001C5.88407 15.0001 1.97065 11.075 0.97649 10C1.96901 8.92418 5.87825 4.99994 9.99995 4.99994C14.8158 4.99994 18.2151 8.91918 19.0451 9.97752C18.0867 11.0184 14.1508 15.0001 9.99995 15.0001Z" fill="white"/>
<path d="M10.0004 6.6666C8.16201 6.6666 6.66699 8.16162 6.66699 9.99997C6.66699 11.8383 8.16201 13.3333 10.0004 13.3333C11.8387 13.3333 13.3337 11.8383 13.3337 9.99997C13.3337 8.16162 11.8387 6.6666 10.0004 6.6666ZM10.0004 12.5001C8.62202 12.5001 7.50033 11.3784 7.50033 10C7.50033 8.62167 8.62202 7.49997 10.0004 7.49997C11.3787 7.49997 12.5004 8.62167 12.5004 10C12.5004 11.3784 11.3787 12.5001 10.0004 12.5001Z" fill="white"/>
</g>
<defs>
<clipPath id="clip0">
<rect width="20" height="20" fill="white"/>
</clipPath>
</defs>
</svg>
