<svg width="20" height="20" viewBox="0 0 20 20" fill="none" xmlns="http://www.w3.org/2000/svg">
<g clip-path="url(#clip0)">
<path d="M19.9262 9.76333C19.7687 9.53415 15.9836 4.16656 10.0002 4.16656C4.86594 4.16656 0.290864 9.50333 0.0983609 9.73083C-0.0324614 9.88583 -0.0324614 10.1133 0.0983609 10.2692C0.290864 10.4967 4.86594 15.8334 10.0002 15.8334C15.1345 15.8334 19.7095 10.4967 19.902 10.2692C20.0229 10.1258 20.0337 9.91833 19.9262 9.76333ZM10.0002 15.0001C5.88431 15.0001 1.97089 11.075 0.976734 10C1.96925 8.92418 5.87849 4.99994 10.0002 4.99994C14.8161 4.99994 18.2153 8.91918 19.0453 9.97752C18.087 11.0184 14.1511 15.0001 10.0002 15.0001Z" fill="black"/>
<path fill-rule="evenodd" clip-rule="evenodd" d="M16.8245 3.10452C17.0003 3.28026 17.0003 3.56518 16.8245 3.74092L3.90028 16.6652C3.72454 16.8409 3.43962 16.8409 3.26388 16.6652C3.08815 16.4894 3.08815 16.2045 3.26388 16.0288L16.1882 3.10452C16.3639 2.92878 16.6488 2.92878 16.8245 3.10452Z" fill="black"/>
<path d="M9.99988 6.66656C8.16153 6.66656 6.6665 8.16159 6.6665 9.99994C6.6665 11.8383 8.16153 13.3333 9.99988 13.3333C11.8382 13.3333 13.3332 11.8383 13.3332 9.99994C13.3332 8.16159 11.8382 6.66656 9.99988 6.66656ZM9.99988 12.5C8.62153 12.5 7.49984 11.3783 7.49984 9.99998C7.49984 8.62164 8.62153 7.49994 9.99988 7.49994C11.3782 7.49994 12.4999 8.62164 12.4999 9.99998C12.4999 11.3783 11.3782 12.5 9.99988 12.5Z" fill="black"/>
</g>
<defs>
<clipPath id="clip0">
<rect width="20" height="20" fill="white"/>
</clipPath>
</defs>
</svg>
