<svg width="103" height="96" viewBox="0 0 103 96" fill="none" xmlns="http://www.w3.org/2000/svg">
<path d="M76.4458 66.048L101.648 78.5312C102.549 79.0441 103 79.9417 103 80.8393C103 81.7369 102.549 82.6345 101.648 83.1474L76.4458 95.6305C74.1735 96.9236 71.5522 94.5898 72.627 92.2306L76.9156 84.6757C33.4352 85.0297 0.761766 47.4289 0.0131327 1.60883C-0.00133389 0.723403 0.717877 0 1.60342 0C2.43953 0 3.13415 0.646762 3.21375 1.47908C7.13592 42.488 37.4658 75.2249 76.6666 76.4564L72.627 69.4479C71.5522 67.0887 74.1735 64.755 76.4458 66.048Z" fill="url(#paint0_linear)"/>
<defs>
<linearGradient id="paint0_linear" x1="51.5" y1="0" x2="51.5" y2="96" gradientUnits="userSpaceOnUse">
<stop stop-color="#7BE7FF"/>
<stop offset="1" stop-color="#B04CA8"/>
</linearGradient>
</defs>
</svg>
