<svg width="45" height="45" viewBox="0 0 45 45" fill="none" xmlns="http://www.w3.org/2000/svg">
<path d="M4.5 45C6.98528 45 9 42.9853 9 40.5C9 38.0147 6.98528 36 4.5 36C2.01472 36 8.80662e-08 38.0147 1.96701e-07 40.5C3.05336e-07 42.9853 2.01472 45 4.5 45Z" fill="url(#paint0_linear)"/>
<path d="M45 22.5C45 34.9264 34.9264 45 22.5 45V36C29.9558 36 36 29.9558 36 22.5C36 15.0442 29.9558 9 22.5 9C15.0442 9 9 15.0442 9 22.5H0C0 10.0736 10.0736 0 22.5 0C34.9264 0 45 10.0736 45 22.5Z" fill="url(#paint1_linear)"/>
<path d="M0 22.5C0 20.0147 2.01472 18 4.5 18C6.98528 18 9 20.0147 9 22.5C9 24.9853 6.98528 27 4.5 27C2.01472 27 0 24.9853 0 22.5Z" fill="url(#paint2_linear)"/>
<path d="M22.5 45V36V31.5C27.4706 31.5 31.5 27.4706 31.5 22.5C31.5 17.5294 27.4706 13.5 22.5 13.5C17.5294 13.5 13.5 17.5294 13.5 22.5V40.5C13.5 42.9853 15.5147 45 18 45L22.5 45Z" fill="url(#paint3_linear)"/>
<path d="M22.5 45V36V31.5C27.4706 31.5 31.5 27.4706 31.5 22.5C31.5 17.5294 27.4706 13.5 22.5 13.5C17.5294 13.5 13.5 17.5294 13.5 22.5V40.5C13.5 42.9853 15.5147 45 18 45L22.5 45Z" fill="url(#paint4_linear)"/>
<defs>
<linearGradient id="paint0_linear" x1="45" y1="9.99948e-07" x2="28.2476" y2="53.7964" gradientUnits="userSpaceOnUse">
<stop stop-color="#E020FF"/>
<stop offset="1" stop-color="#1E18FF"/>
</linearGradient>
<linearGradient id="paint1_linear" x1="45" y1="9.99948e-07" x2="28.2476" y2="53.7964" gradientUnits="userSpaceOnUse">
<stop stop-color="#E020FF"/>
<stop offset="1" stop-color="#1E18FF"/>
</linearGradient>
<linearGradient id="paint2_linear" x1="45" y1="9.99948e-07" x2="28.2476" y2="53.7964" gradientUnits="userSpaceOnUse">
<stop stop-color="#E020FF"/>
<stop offset="1" stop-color="#1E18FF"/>
</linearGradient>
<linearGradient id="paint3_linear" x1="45" y1="9.99948e-07" x2="28.2476" y2="53.7964" gradientUnits="userSpaceOnUse">
<stop stop-color="#E020FF"/>
<stop offset="1" stop-color="#1E18FF"/>
</linearGradient>
<linearGradient id="paint4_linear" x1="45" y1="9.99948e-07" x2="28.2476" y2="53.7964" gradientUnits="userSpaceOnUse">
<stop stop-color="#E020FF"/>
<stop offset="1" stop-color="#1E18FF"/>
</linearGradient>
</defs>
</svg>
