<svg width="20" height="20" viewBox="0 0 20 20" fill="none" xmlns="http://www.w3.org/2000/svg">
<path fill-rule="evenodd" clip-rule="evenodd" d="M14.1667 0H5.83333C2.61667 0 0 2.61667 0 5.83333V14.1667C0 17.3833 2.61667 20 5.83333 20H14.1667C17.3833 20 20 17.3833 20 14.1667V5.83333C20 2.61667 17.3833 0 14.1667 0ZM15.1016 3.65434C15.1016 2.96847 15.6383 2.41032 16.2978 2.41032C16.9573 2.41032 17.494 2.96847 17.494 3.65434C17.494 4.3402 16.9573 4.89835 16.2978 4.89835C15.6383 4.89835 15.1016 4.3402 15.1016 3.65434ZM4.78873 10C4.78873 7.1267 7.1267 4.78873 10 4.78873C12.8733 4.78873 15.2113 7.1267 15.2113 10C15.2113 12.8733 12.8733 15.2113 10 15.2113C7.1267 15.2113 4.78873 12.8733 4.78873 10Z" fill="#484269"/>
<path d="M10 13.3163C8.17132 13.3163 6.68374 11.8287 6.68374 10C6.68374 8.17132 8.17132 6.68374 10 6.68374C11.8287 6.68374 13.3163 8.17132 13.3163 10C13.3163 11.8287 11.8287 13.3163 10 13.3163Z" fill="#484269"/>
</svg>
