<svg width="20" height="19" viewBox="0 0 20 19" fill="none" xmlns="http://www.w3.org/2000/svg">
<path d="M0.253304 18.8652H4.54067V6.13635H0.253304V18.8652Z" fill="#484269"/>
<path d="M2.36918 4.39821H2.39712C3.89223 4.39821 4.82271 3.42086 4.82271 2.19937C4.79478 0.950314 3.89223 0 2.42559 0C0.958956 0 0 0.950314 0 2.19937C0 3.42086 0.930482 4.39821 2.36918 4.39821Z" fill="#484269"/>
<path d="M15.7132 18.8652H20V11.5665C20 7.65685 17.8849 5.8376 15.0642 5.8376C12.7896 5.8376 11.7702 7.07129 11.2004 7.93863V6.13635H6.91334C6.96949 7.33053 6.91334 18.8652 6.91334 18.8652H11.2004V11.7568C11.2004 11.3765 11.2281 10.9963 11.3415 10.7244C11.6514 9.96437 12.3568 9.17708 13.5412 9.17708C15.0924 9.17708 15.7132 10.3442 15.7132 12.0556V18.8652Z" fill="#484269"/>
</svg>
