<svg width="342" height="79" viewBox="0 0 342 79" fill="none" xmlns="http://www.w3.org/2000/svg">
<path d="M194.407 69.6561C195.115 69.6561 195.672 69.8819 196.078 70.3335V68.7626C196.078 68.2562 196.497 67.8457 197.014 67.8457C197.532 67.8457 197.951 68.2562 197.951 68.7626V75.1631C197.951 75.6695 197.532 76.08 197.014 76.08H196.722C196.366 76.08 196.078 75.7976 196.078 75.4493C195.688 75.9243 195.123 76.1618 194.383 76.1618C193.405 76.1618 192.641 75.8348 192.093 75.1807C191.544 74.5266 191.273 73.7363 191.281 72.8097C191.297 71.8908 191.572 71.1355 192.105 70.5438C192.637 69.952 193.405 69.6561 194.407 69.6561ZM194.61 74.3981C195.016 74.3981 195.362 74.2502 195.648 73.9543C195.935 73.6584 196.078 73.3002 196.078 72.8797C196.078 72.4593 195.935 72.1011 195.648 71.8052C195.362 71.5015 195.016 71.3497 194.61 71.3497C194.157 71.3497 193.803 71.4976 193.548 71.7935C193.302 72.0894 193.174 72.4437 193.166 72.8564C193.158 73.2691 193.282 73.6311 193.536 73.9426C193.799 74.2463 194.157 74.3981 194.61 74.3981Z" fill="#1A1344"/>
<path d="M206.262 70.6956C206.262 70.1796 205.835 69.7612 205.308 69.7612C204.78 69.7612 204.353 70.1796 204.353 70.6956V75.1456C204.353 75.6617 204.78 76.08 205.308 76.08C205.835 76.08 206.262 75.6617 206.262 75.1456V70.6956ZM204.174 68.3713C204.174 68.0365 204.282 67.7756 204.496 67.5887C204.711 67.4019 204.966 67.3045 205.26 67.2967C205.57 67.289 205.841 67.3824 206.071 67.5771C206.31 67.7639 206.429 68.0287 206.429 68.3713C206.429 68.6905 206.322 68.9397 206.107 69.1188C205.892 69.2979 205.638 69.3913 205.343 69.3991C205.033 69.4069 204.759 69.3213 204.52 69.1422C204.289 68.9553 204.174 68.6983 204.174 68.3713Z" fill="#1A1344"/>
<path d="M215.492 76.0567C214.49 76.0567 213.718 75.7725 213.177 75.204C212.644 74.6278 212.378 73.8842 212.378 72.9732C212.378 72.0154 212.648 71.229 213.189 70.6138C213.73 69.9909 214.494 69.6833 215.48 69.6911C216.228 69.6911 216.789 69.9247 217.162 70.3919C217.162 70.0436 217.451 69.7612 217.807 69.7612H218.099C218.616 69.7612 219.036 70.1717 219.036 70.6781V75.7179C219.036 76.2786 218.94 76.773 218.749 77.2013C218.566 77.6373 218.316 77.98 217.998 78.2291C217.687 78.4861 217.341 78.6769 216.96 78.8014C216.578 78.9338 216.176 79 215.755 79C214.911 79 214.168 78.7703 213.523 78.3109C213.183 78.0654 212.934 77.781 212.776 77.4577C212.541 76.9778 213.01 76.5239 213.553 76.5239H213.9C214.252 76.5239 214.584 76.8327 214.884 77.0144C215.122 77.1546 215.393 77.2208 215.695 77.213C216.085 77.2052 216.419 77.0845 216.697 76.8509C216.983 76.6173 217.139 76.2435 217.162 75.7296V75.4026C216.781 75.8386 216.224 76.0567 215.492 76.0567ZM215.707 71.4431C215.245 71.4431 214.888 71.5988 214.633 71.9103C214.378 72.2218 214.255 72.5838 214.263 72.9965C214.271 73.417 214.414 73.744 214.693 73.9776C214.979 74.2035 215.317 74.3164 215.707 74.3164C216.097 74.3086 216.435 74.1879 216.721 73.9543C217.015 73.7129 217.162 73.3859 217.162 72.9732C217.162 72.5527 217.019 72.1945 216.733 71.8986C216.447 71.5949 216.105 71.4431 215.707 71.4431Z" fill="#1A1344"/>
<path d="M227.348 70.6956C227.348 70.1796 226.92 69.7612 226.393 69.7612C225.866 69.7612 225.439 70.1796 225.439 70.6956V75.1456C225.439 75.6617 225.866 76.08 226.393 76.08C226.92 76.08 227.348 75.6617 227.348 75.1456V70.6956ZM225.26 68.3713C225.26 68.0365 225.367 67.7756 225.582 67.5887C225.797 67.4019 226.051 67.3045 226.346 67.2967C226.656 67.289 226.926 67.3824 227.157 67.5771C227.395 67.7639 227.515 68.0287 227.515 68.3713C227.515 68.6905 227.407 68.9397 227.193 69.1188C226.978 69.2979 226.723 69.3913 226.429 69.3991C226.119 69.4069 225.844 69.3213 225.606 69.1422C225.375 68.9553 225.26 68.6983 225.26 68.3713Z" fill="#1A1344"/>
<path d="M237.59 75.4444C237.605 75.8138 237.336 76.142 236.959 76.1703C236.827 76.1802 236.704 76.1851 236.59 76.1851C235.842 76.1929 235.269 76.0138 234.871 75.6479C234.474 75.2819 234.275 74.6979 234.275 73.8959V71.4081H234.233C233.788 71.4081 233.428 71.0551 233.428 70.6197C233.428 70.1843 233.788 69.8313 234.233 69.8313H234.275V69.4671C234.275 68.9922 234.645 68.5959 235.128 68.5538C235.676 68.5059 236.148 68.9285 236.148 69.4671V69.8313H236.691C237.136 69.8313 237.496 70.1843 237.496 70.6197C237.496 71.0551 237.136 71.4081 236.691 71.4081H236.148V73.8959C236.148 74.3864 236.438 74.6317 237.019 74.6317C237.301 74.6317 237.566 74.8267 237.577 75.1028L237.59 75.4444Z" fill="#1A1344"/>
<path d="M246.416 69.6561C247.124 69.6561 247.681 69.9091 248.087 70.4153C248.087 70.054 248.386 69.7612 248.755 69.7612H249.023C249.541 69.7612 249.96 70.1717 249.96 70.6781V75.1631C249.96 75.6695 249.541 76.08 249.023 76.08H248.731C248.375 76.08 248.087 75.7976 248.087 75.4493C247.697 75.9243 247.132 76.1618 246.392 76.1618C245.414 76.1618 244.651 75.8348 244.102 75.1807C243.553 74.5266 243.282 73.7363 243.29 72.8097C243.306 71.8908 243.581 71.1355 244.114 70.5438C244.647 69.952 245.414 69.6561 246.416 69.6561ZM246.619 74.3981C247.025 74.3981 247.371 74.2502 247.657 73.9543C247.944 73.6584 248.087 73.3002 248.087 72.8797C248.087 72.4593 247.944 72.1011 247.657 71.8052C247.371 71.5015 247.025 71.3497 246.619 71.3497C246.166 71.3497 245.812 71.4976 245.557 71.7935C245.311 72.0894 245.183 72.4437 245.175 72.8564C245.168 73.2691 245.291 73.6311 245.545 73.9426C245.808 74.2463 246.166 74.3981 246.619 74.3981Z" fill="#1A1344"/>
<path d="M256.207 68.8385C256.207 68.3225 256.634 67.9041 257.162 67.9041C257.689 67.9041 258.116 68.3225 258.116 68.8385V75.1456C258.116 75.6617 257.689 76.08 257.162 76.08C256.634 76.08 256.207 75.6617 256.207 75.1456V68.8385Z" fill="#1A1344"/>
<path d="M275.441 69.6561C276.148 69.6561 276.705 69.9091 277.111 70.4153C277.111 70.054 277.41 69.7612 277.779 69.7612H278.048C278.565 69.7612 278.984 70.1717 278.984 70.6781V75.1631C278.984 75.6695 278.565 76.08 278.048 76.08H277.755C277.399 76.08 277.111 75.7976 277.111 75.4493C276.721 75.9243 276.156 76.1618 275.417 76.1618C274.438 76.1618 273.675 75.8348 273.126 75.1807C272.577 74.5266 272.307 73.7363 272.315 72.8097C272.33 71.8908 272.605 71.1355 273.138 70.5438C273.671 69.952 274.438 69.6561 275.441 69.6561ZM275.643 74.3981C276.049 74.3981 276.395 74.2502 276.681 73.9543C276.968 73.6584 277.111 73.3002 277.111 72.8797C277.111 72.4593 276.968 72.1011 276.681 71.8052C276.395 71.5015 276.049 71.3497 275.643 71.3497C275.19 71.3497 274.836 71.4976 274.582 71.7935C274.335 72.0894 274.208 72.4437 274.2 72.8564C274.192 73.2691 274.315 73.6311 274.57 73.9426C274.832 74.2463 275.19 74.3981 275.643 74.3981Z" fill="#1A1344"/>
<path d="M288.202 76.0567C287.2 76.0567 286.428 75.7725 285.888 75.204C285.355 74.6278 285.088 73.8842 285.088 72.9732C285.088 72.0154 285.359 71.229 285.899 70.6138C286.44 69.9909 287.204 69.6833 288.19 69.6911C288.938 69.6911 289.499 69.9247 289.873 70.3919C289.873 70.0436 290.161 69.7612 290.517 69.7612H290.809C291.327 69.7612 291.746 70.1717 291.746 70.6781V75.7179C291.746 76.2786 291.65 76.773 291.459 77.2013C291.277 77.6373 291.026 77.98 290.708 78.2291C290.398 78.4861 290.052 78.6769 289.67 78.8014C289.288 78.9338 288.886 79 288.465 79C287.622 79 286.878 78.7703 286.233 78.3109C285.893 78.0654 285.644 77.781 285.486 77.4577C285.251 76.9778 285.72 76.5239 286.263 76.5239H286.61C286.962 76.5239 287.295 76.8327 287.594 77.0144C287.832 77.1546 288.103 77.2208 288.405 77.213C288.795 77.2052 289.129 77.0845 289.407 76.8509C289.694 76.6173 289.849 76.2435 289.873 75.7296V75.4026C289.491 75.8386 288.934 76.0567 288.202 76.0567ZM288.417 71.4431C287.956 71.4431 287.598 71.5988 287.343 71.9103C287.089 72.2218 286.965 72.5838 286.973 72.9965C286.981 73.417 287.124 73.744 287.403 73.9776C287.689 74.2035 288.027 74.3164 288.417 74.3164C288.807 74.3086 289.145 74.1879 289.431 73.9543C289.725 73.7129 289.873 73.3859 289.873 72.9732C289.873 72.5527 289.729 72.1945 289.443 71.8986C289.157 71.5949 288.815 71.4431 288.417 71.4431Z" fill="#1A1344"/>
<path d="M304.532 72.9031C304.532 73.1523 304.508 73.3936 304.461 73.6273H299.831C299.943 73.9076 300.125 74.1256 300.38 74.2813C300.635 74.4293 300.913 74.5071 301.215 74.5149C301.48 74.5149 301.714 74.4658 301.916 74.3674C302.193 74.2329 302.477 74.0828 302.786 74.0828C303.546 74.0828 304.065 74.8467 303.495 75.3398C303.37 75.4477 303.235 75.5465 303.088 75.6362C302.492 75.9944 301.836 76.1657 301.12 76.1501C300.229 76.1345 299.461 75.8425 298.817 75.2741C298.181 74.6979 297.862 73.9076 297.862 72.9031C297.862 72.3814 297.958 71.9103 298.149 71.4898C298.34 71.0616 298.594 70.719 298.912 70.462C299.239 70.205 299.597 70.0104 299.986 69.878C300.384 69.7378 300.798 69.6678 301.227 69.6678C302.126 69.6755 302.902 69.9637 303.554 70.5321C304.206 71.1005 304.532 71.8908 304.532 72.9031ZM299.903 72.1906H302.48C302.392 71.8869 302.229 71.6572 301.991 71.5015C301.76 71.3458 301.486 71.2679 301.167 71.2679C300.873 71.2679 300.611 71.3497 300.38 71.5132C300.157 71.6689 299.998 71.8947 299.903 72.1906Z" fill="#1A1344"/>
<path d="M310.569 70.6898C310.569 70.177 310.994 69.7612 311.518 69.7612H311.822C312.178 69.7612 312.467 70.0436 312.467 70.3919C312.856 69.9091 313.493 69.6678 314.376 69.6678C315.943 69.6911 316.718 70.6683 316.702 72.5994V75.1456C316.702 75.6617 316.275 76.08 315.748 76.08C315.221 76.08 314.793 75.6617 314.793 75.1456V72.6111C314.793 72.2062 314.694 71.8986 314.495 71.6884C314.304 71.4781 314.069 71.373 313.791 71.373C313.481 71.373 313.198 71.4898 312.944 71.7234C312.689 71.957 312.562 72.2646 312.562 72.6461V75.1047C312.562 75.6434 312.116 76.08 311.566 76.08C311.016 76.08 310.569 75.6434 310.569 75.1047V70.6898Z" fill="#1A1344"/>
<path d="M327.11 74.0048C327.412 73.7017 327.764 73.3937 328.197 73.3937C328.796 73.3937 329.275 73.9271 329.008 74.453C328.912 74.6425 328.797 74.8188 328.663 74.9821C328.305 75.4182 327.883 75.7296 327.398 75.9165C326.921 76.0956 326.412 76.1657 325.871 76.1267C325.338 76.0956 324.845 75.9632 324.391 75.7296C323.946 75.4882 323.572 75.1223 323.27 74.6317C322.975 74.1412 322.828 73.5688 322.828 72.9148C322.828 72.2607 322.975 71.6884 323.27 71.1978C323.572 70.7073 323.946 70.3452 324.391 70.1116C324.845 69.8702 325.342 69.7339 325.883 69.7028C326.423 69.6639 326.933 69.7378 327.41 69.9247C327.887 70.1038 328.305 70.4153 328.663 70.8591C328.798 71.0246 328.915 71.2036 329.012 71.396C329.275 71.9185 328.8 72.4476 328.205 72.4476C327.769 72.4476 327.417 72.1305 327.108 71.8289C327.025 71.748 326.931 71.6778 326.825 71.6183C326.515 71.4392 326.201 71.373 325.883 71.4197C325.564 71.4587 325.282 71.6144 325.035 71.8869C324.789 72.1517 324.666 72.4943 324.666 72.9148C324.666 73.3353 324.789 73.6818 325.035 73.9543C325.282 74.219 325.564 74.3748 325.883 74.4215C326.201 74.4682 326.515 74.402 326.825 74.2229C326.931 74.1616 327.026 74.0889 327.11 74.0048Z" fill="#1A1344"/>
<path d="M338.096 73.382L338.573 71.7818L339.087 70.483C339.259 70.048 339.687 69.7612 340.163 69.7612H341.019C341.184 69.7612 341.317 69.8919 341.317 70.0532C339.926 73.4927 338.964 75.8771 338.431 77.2065C338.257 77.6404 337.83 77.9254 337.354 77.9254H336.485C336.327 77.9254 336.199 77.7999 336.199 77.6451L337.034 75.5661L334.886 70.0532C334.886 69.8919 335.02 69.7612 335.184 69.7612H336.047C336.527 69.7612 336.957 70.0497 337.13 70.4874L337.642 71.7818L338.096 73.382Z" fill="#1A1344"/>
<path d="M24.5677 16.3267C27.8553 16.3267 30.874 16.9411 33.6236 18.17C36.4331 19.3404 38.854 20.9789 40.8863 23.0856C42.9187 25.1922 44.5027 27.65 45.6385 30.4589C46.7742 33.2678 47.3421 36.2815 47.3421 39.5C47.3421 42.66 46.7742 45.6444 45.6385 48.4533C44.5027 51.2622 42.9187 53.72 40.8863 55.8267C38.854 57.9333 36.4331 59.6011 33.6236 60.83C30.874 62.0004 27.8553 62.5856 24.5677 62.5856C22.8158 62.5856 21.1675 62.4302 19.6226 62.1195C16.8963 61.5713 15.7728 58.6201 16.8107 56.0918L16.981 55.6768C17.998 53.1995 20.9439 52.0522 23.671 52.0522C25.4045 52.0522 27.0483 51.7596 28.6025 51.1744C30.1567 50.5307 31.5614 49.5944 32.8167 48.3656C35.3272 45.9078 36.5825 42.9526 36.5825 39.5C36.5825 35.9889 35.3272 33.0044 32.8167 30.5467C30.1866 28.0889 27.138 26.86 23.671 26.86C20.0845 26.86 17.036 28.0889 14.5254 30.5467C12.0148 33.0044 10.7596 35.9889 10.7596 39.5V73.7333C10.7596 76.642 8.35095 79 5.37978 79C2.40861 79 0 76.642 0 73.7333V22.7344C0 19.8258 2.40861 17.4678 5.37978 17.4678H7.17304C9.15382 17.4678 10.7596 19.0398 10.7596 20.9789C12.493 19.633 14.4955 18.5211 16.767 17.6433C19.0385 16.7656 21.6387 16.3267 24.5677 16.3267Z" fill="#1A1344"/>
<path d="M66.186 56.1778C66.186 59.0865 63.7774 61.4444 60.8062 61.4444C57.8351 61.4444 55.4265 59.0865 55.4265 56.1778V5.26667C55.4265 2.35797 57.8351 0 60.8062 0C63.7774 0 66.186 2.35797 66.186 5.26667V56.1778Z" fill="#1A1344"/>
<path d="M116.239 17.4678C119.21 17.4678 121.619 19.8257 121.619 22.7344V56.1778C121.619 59.0865 119.21 61.4444 116.239 61.4444C113.268 61.4444 110.859 59.0865 110.859 56.1778V39.5C110.859 35.9889 109.604 33.0044 107.093 30.5467C104.583 28.0889 101.534 26.86 97.9477 26.86C96.2143 26.86 94.5406 27.1819 92.9266 27.8256C91.3725 28.4693 89.9976 29.3763 88.8021 30.5467C86.2915 33.0044 85.0363 35.9889 85.0363 39.5C85.0363 42.9526 86.2915 45.9078 88.8021 48.3656C89.9976 49.5944 91.3725 50.5307 92.9266 51.1744C94.5406 51.7596 96.2143 52.0522 97.9477 52.0522C100.675 52.0522 103.621 53.1995 104.638 55.6768L104.808 56.0918C105.846 58.6201 104.723 61.5713 101.996 62.1195C100.451 62.4302 98.8029 62.5856 97.0511 62.5856C93.7635 62.5856 90.7149 62.0004 87.9055 60.83C85.1558 59.6011 82.7648 57.9333 80.7324 55.8267C78.7001 53.72 77.116 51.2622 75.9803 48.4533C74.8446 45.6444 74.2767 42.66 74.2767 39.5C74.2767 36.2815 74.8446 33.2678 75.9803 30.4589C77.116 27.65 78.7001 25.1922 80.7324 23.0856C82.7648 20.9789 85.1558 19.3404 87.9055 18.17C90.7149 16.9411 93.7635 16.3267 97.0511 16.3267C99.9801 16.3267 102.58 16.7656 104.852 17.6433C107.123 18.5211 109.126 19.633 110.859 20.9789C110.859 19.0398 112.465 17.4678 114.446 17.4678H116.239Z" fill="#1A1344"/>
<path d="M155.29 54.9004C156.138 58.2245 153.57 61.4444 150.07 61.4444H147.098C145.065 61.4444 143.153 61.0641 141.359 60.3033C139.566 59.5426 138.012 58.5185 136.697 57.2311C135.382 55.8852 134.336 54.3344 133.559 52.5789C132.782 50.8233 132.393 48.9507 132.393 46.9611V12.8021C132.393 10.3854 134.073 8.27881 136.468 7.69267C139.863 6.86166 143.153 9.37575 143.153 12.8021V22.8222H145.229C147.697 22.8222 149.849 24.467 150.448 26.8115C151.297 30.1356 148.729 33.3556 145.229 33.3556H143.153V46.9611C143.153 48.073 143.541 49.0093 144.318 49.77C145.095 50.5307 146.022 50.9111 147.098 50.9111H150.07C152.539 50.9111 154.691 52.5559 155.29 54.9004Z" fill="#1A1344"/>
<path d="M185.766 6.28273C185.766 8.63027 183.735 10.4397 181.552 11.4111C180.296 11.9378 179.16 12.6693 178.144 13.6056C177.188 14.5419 176.411 15.6537 175.813 16.9411C175.215 18.17 174.916 19.5159 174.916 20.9789H177.082C179.551 20.9789 181.703 22.6237 182.301 24.9682C183.15 28.2922 180.582 31.5122 177.082 31.5122H174.916V73.7333C174.916 76.642 172.508 79 169.537 79C166.565 79 164.157 76.642 164.157 73.7333V20.9789C164.217 18.17 164.785 15.5074 165.86 12.9911C166.936 10.4163 168.491 8.13408 170.523 6.14444C172.555 4.15482 174.887 2.63333 177.517 1.58C178.221 1.29792 178.934 1.05361 179.655 0.847073C182.938 -0.092588 185.766 2.71407 185.766 6.06204V6.28273Z" fill="#1A1344"/>
<path d="M215.718 26.86C212.132 26.86 209.083 28.0889 206.572 30.5467C204.062 33.0044 202.807 35.9889 202.807 39.5C202.807 42.9526 204.062 45.9078 206.572 48.3656C207.768 49.5944 209.143 50.5307 210.697 51.1744C212.311 51.7596 213.985 52.0522 215.718 52.0522C217.452 52.0522 219.095 51.7596 220.649 51.1744C222.204 50.5307 223.608 49.5944 224.864 48.3656C227.374 45.9078 228.63 42.9526 228.63 39.5C228.63 35.9889 227.374 33.0044 224.864 30.5467C222.234 28.0889 219.185 26.86 215.718 26.86ZM215.718 16.3267C219.006 16.3267 222.084 16.9411 224.953 18.17C227.823 19.3404 230.333 20.9789 232.485 23.0856C234.637 25.1922 236.311 27.65 237.506 30.4589C238.761 33.2678 239.389 36.2815 239.389 39.5C239.389 42.66 238.761 45.6444 237.506 48.4533C236.311 51.2622 234.637 53.72 232.485 55.8267C230.333 57.9333 227.823 59.6011 224.953 60.83C222.084 62.0004 219.006 62.5856 215.718 62.5856C212.43 62.5856 209.352 62.0004 206.483 60.83C203.614 59.6011 201.103 57.9333 198.951 55.8267C196.799 53.72 195.096 51.2622 193.84 48.4533C192.645 45.6444 192.047 42.66 192.047 39.5C192.047 36.2815 192.645 33.2678 193.84 30.4589C195.096 27.65 196.799 25.1922 198.951 23.0856C201.103 20.9789 203.614 19.3404 206.483 18.17C209.352 16.9411 212.43 16.3267 215.718 16.3267Z" fill="#1A1344"/>
<path d="M258.208 20.8911C259.882 19.5452 261.765 18.4333 263.857 17.5556C264.482 17.3008 265.129 17.0829 265.799 16.9021C268.664 16.129 271.12 18.5969 271.12 21.5056C271.12 24.4143 268.603 26.6314 265.884 27.8022C264.461 28.4147 263.158 29.3002 261.974 30.4589C259.464 33.0337 258.208 36.0182 258.208 39.4122V56.1778C258.208 59.0865 255.8 61.4444 252.829 61.4444C249.858 61.4444 247.449 59.0865 247.449 56.1778V22.7344C247.449 19.8257 249.858 17.4678 252.829 17.4678H254.712C256.643 17.4678 258.208 19.0005 258.208 20.8911Z" fill="#1A1344"/>
<path d="M327.206 16.3267C329.716 16.3267 331.898 16.7948 333.751 17.7311C335.664 18.6674 337.218 19.9548 338.413 21.5933C339.609 23.2319 340.506 25.1337 341.103 27.2989C341.701 29.4641 342 31.8048 342 34.3211V56.1778C342 59.0865 339.591 61.4444 336.62 61.4444C333.649 61.4444 331.24 59.0865 331.24 56.1778V34.3211C331.24 32.273 330.493 30.5174 328.999 29.0544C327.564 27.5915 325.771 26.86 323.619 26.86C321.467 26.86 319.674 27.5915 318.239 29.0544C316.745 30.5174 315.998 32.273 315.998 34.3211V56.1778C315.998 59.0865 313.589 61.4444 310.618 61.4444C307.647 61.4444 305.238 59.0865 305.238 56.1778V34.3211C305.238 32.273 304.491 30.5174 302.997 29.0544C302.279 28.2937 301.442 27.7378 300.486 27.3867C299.589 27.0356 298.633 26.86 297.617 26.86C295.405 26.86 293.582 27.5915 292.147 29.0544C290.653 30.5174 289.906 32.273 289.906 34.3211V56.1778C289.906 59.0865 287.497 61.4444 284.526 61.4444C281.555 61.4444 279.146 59.0865 279.146 56.1778V22.8222C279.146 19.9135 281.555 17.5556 284.526 17.5556H285.961C288.139 17.5556 289.906 19.2847 289.906 21.4178C291.639 19.9548 293.462 18.7552 295.375 17.8189C297.288 16.8241 299.231 16.3267 301.203 16.3267C303.893 16.3267 306.105 16.8533 307.838 17.9067C309.572 18.96 311.126 20.423 312.501 22.2956C314.115 20.5985 316.207 19.1941 318.777 18.0822C321.348 16.9119 324.157 16.3267 327.206 16.3267Z" fill="#1A1344"/>
</svg>
