<svg width="137" height="30" viewBox="0 0 137 30" fill="none" xmlns="http://www.w3.org/2000/svg">
<path d="M77.8766 26.4517C78.1602 26.4517 78.3833 26.5374 78.5458 26.7089V26.1124C78.5458 25.9201 78.7137 25.7642 78.921 25.7642C79.1282 25.7642 79.2961 25.9201 79.2961 26.1124V28.5429C79.2961 28.7353 79.1282 28.8911 78.921 28.8911H78.8038C78.6613 28.8911 78.5458 28.7839 78.5458 28.6516C78.3896 28.832 78.1634 28.9222 77.8671 28.9222C77.4751 28.9222 77.1692 28.798 76.9494 28.5496C76.7295 28.3012 76.6212 28.0011 76.6244 27.6492C76.6307 27.3003 76.7407 27.0135 76.9542 26.7888C77.1676 26.564 77.4751 26.4517 77.8766 26.4517ZM77.9579 28.2524C78.1204 28.2524 78.259 28.1963 78.3737 28.0839C78.4884 27.9715 78.5458 27.8355 78.5458 27.6758C78.5458 27.5162 78.4884 27.3802 78.3737 27.2678C78.259 27.1525 78.1204 27.0948 77.9579 27.0948C77.7763 27.0948 77.6345 27.151 77.5325 27.2634C77.4337 27.3757 77.3827 27.5103 77.3795 27.667C77.3764 27.8237 77.4258 27.9612 77.5277 28.0795C77.6329 28.1948 77.7763 28.2524 77.9579 28.2524Z" fill="#1A1344"/>
<path d="M82.6255 26.8464C82.6255 26.6505 82.4543 26.4916 82.2431 26.4916C82.0319 26.4916 81.8608 26.6505 81.8608 26.8464V28.5363C81.8608 28.7323 82.0319 28.8911 82.2431 28.8911C82.4543 28.8911 82.6255 28.7323 82.6255 28.5363V26.8464ZM81.7891 25.9638C81.7891 25.8366 81.8321 25.7376 81.9181 25.6666C82.0041 25.5956 82.1061 25.5587 82.224 25.5557C82.3483 25.5528 82.4566 25.5883 82.549 25.6622C82.6446 25.7331 82.6924 25.8337 82.6924 25.9638C82.6924 26.085 82.6494 26.1796 82.5633 26.2476C82.4773 26.3157 82.3754 26.3511 82.2575 26.3541C82.1332 26.3571 82.0233 26.3245 81.9277 26.2565C81.8353 26.1856 81.7891 26.088 81.7891 25.9638Z" fill="#1A1344"/>
<path d="M86.3229 28.8823C85.9214 28.8823 85.6123 28.7743 85.3956 28.5585C85.1821 28.3397 85.0754 28.0573 85.0754 27.7113C85.0754 27.3476 85.1837 27.049 85.4004 26.8154C85.6171 26.5788 85.923 26.462 86.3181 26.465C86.6176 26.465 86.8422 26.5537 86.992 26.7311C86.992 26.5988 87.1075 26.4916 87.2501 26.4916H87.3672C87.5744 26.4916 87.7424 26.6475 87.7424 26.8398V28.7537C87.7424 28.9666 87.7041 29.1543 87.6277 29.3169C87.5544 29.4825 87.454 29.6126 87.3266 29.7073C87.2023 29.8048 87.0637 29.8773 86.9107 29.9246C86.7578 29.9749 86.5969 30 86.428 30C86.0902 30 85.7923 29.9128 85.5342 29.7383C85.398 29.6451 85.2982 29.5371 85.2348 29.4143C85.1406 29.2321 85.3284 29.0597 85.5462 29.0597H85.6851C85.8262 29.0597 85.9593 29.177 86.0791 29.246C86.1747 29.2992 86.283 29.3243 86.4041 29.3214C86.5602 29.3184 86.6941 29.2726 86.8056 29.1839C86.9203 29.0952 86.9824 28.9532 86.992 28.7581V28.6339C86.839 28.7995 86.616 28.8823 86.3229 28.8823ZM86.4089 27.1303C86.2241 27.1303 86.0807 27.1894 85.9787 27.3077C85.8768 27.426 85.8274 27.5635 85.8306 27.7202C85.8337 27.8799 85.8911 28.0041 86.0026 28.0928C86.1173 28.1785 86.2527 28.2214 86.4089 28.2214C86.565 28.2184 86.7004 28.1726 86.8151 28.0839C86.933 27.9922 86.992 27.8681 86.992 27.7113C86.992 27.5517 86.9346 27.4156 86.8199 27.3033C86.7052 27.188 86.5682 27.1303 86.4089 27.1303Z" fill="#1A1344"/>
<path d="M91.0721 26.8464C91.0721 26.6505 90.9009 26.4916 90.6897 26.4916C90.4785 26.4916 90.3073 26.6505 90.3073 26.8464V28.5363C90.3073 28.7323 90.4785 28.8911 90.6897 28.8911C90.9009 28.8911 91.0721 28.7323 91.0721 28.5363V26.8464ZM90.2356 25.9638C90.2356 25.8366 90.2786 25.7376 90.3647 25.6666C90.4507 25.5956 90.5527 25.5587 90.6706 25.5557C90.7948 25.5528 90.9032 25.5883 90.9956 25.6622C91.0912 25.7331 91.139 25.8337 91.139 25.9638C91.139 26.085 91.0959 26.1796 91.0099 26.2476C90.9239 26.3157 90.8219 26.3511 90.704 26.3541C90.5798 26.3571 90.4698 26.3245 90.3742 26.2565C90.2818 26.1856 90.2356 26.088 90.2356 25.9638Z" fill="#1A1344"/>
<path d="M95.175 28.6498C95.1809 28.7901 95.073 28.9147 94.9222 28.9254C94.8693 28.9292 94.82 28.9311 94.7742 28.9311C94.4747 28.934 94.2453 28.866 94.0859 28.727C93.9266 28.5881 93.847 28.3663 93.847 28.0617V27.117H93.8302C93.652 27.117 93.5076 26.9829 93.5076 26.8176C93.5076 26.6523 93.652 26.5182 93.8302 26.5182H93.847V26.3799C93.847 26.1996 93.9953 26.0491 94.1888 26.0331C94.4083 26.0149 94.5974 26.1754 94.5974 26.3799V26.5182H94.8148C94.993 26.5182 95.1374 26.6523 95.1374 26.8176C95.1374 26.9829 94.993 27.117 94.8148 27.117H94.5974V28.0617C94.5974 28.248 94.7136 28.3412 94.9463 28.3412C95.0593 28.3412 95.1653 28.4152 95.1697 28.5201L95.175 28.6498Z" fill="#1A1344"/>
<path d="M98.7106 26.4517C98.9942 26.4517 99.2173 26.5478 99.3798 26.74C99.3798 26.6028 99.4996 26.4916 99.6474 26.4916H99.755C99.9622 26.4916 100.13 26.6475 100.13 26.8398V28.5429C100.13 28.7353 99.9622 28.8911 99.755 28.8911H99.6379C99.4953 28.8911 99.3798 28.7839 99.3798 28.6516C99.2237 28.832 98.9974 28.9222 98.7011 28.9222C98.3092 28.9222 98.0033 28.798 97.7834 28.5496C97.5636 28.3012 97.4552 28.0011 97.4584 27.6492C97.4648 27.3003 97.5747 27.0135 97.7882 26.7888C98.0017 26.564 98.3092 26.4517 98.7106 26.4517ZM98.7919 28.2524C98.9544 28.2524 99.093 28.1963 99.2077 28.0839C99.3224 27.9715 99.3798 27.8355 99.3798 27.6758C99.3798 27.5162 99.3224 27.3802 99.2077 27.2678C99.093 27.1525 98.9544 27.0948 98.7919 27.0948C98.6103 27.0948 98.4685 27.151 98.3665 27.2634C98.2677 27.3757 98.2168 27.5103 98.2136 27.667C98.2104 27.8237 98.2598 27.9612 98.3617 28.0795C98.4669 28.1948 98.6103 28.2524 98.7919 28.2524Z" fill="#1A1344"/>
<path d="M102.633 26.1412C102.633 25.9452 102.804 25.7864 103.015 25.7864C103.226 25.7864 103.397 25.9452 103.397 26.1412V28.5363C103.397 28.7323 103.226 28.8911 103.015 28.8911C102.804 28.8911 102.633 28.7323 102.633 28.5363V26.1412Z" fill="#1A1344"/>
<path d="M110.337 26.4517C110.621 26.4517 110.844 26.5478 111.006 26.74C111.006 26.6028 111.126 26.4916 111.274 26.4916H111.382C111.589 26.4916 111.757 26.6475 111.757 26.8398V28.5429C111.757 28.7353 111.589 28.8911 111.382 28.8911H111.265C111.122 28.8911 111.006 28.7839 111.006 28.6516C110.85 28.832 110.624 28.9222 110.328 28.9222C109.936 28.9222 109.63 28.798 109.41 28.5496C109.19 28.3012 109.082 28.0011 109.085 27.6492C109.091 27.3003 109.201 27.0135 109.415 26.7888C109.628 26.564 109.936 26.4517 110.337 26.4517ZM110.419 28.2524C110.581 28.2524 110.72 28.1963 110.834 28.0839C110.949 27.9715 111.006 27.8355 111.006 27.6758C111.006 27.5162 110.949 27.3802 110.834 27.2678C110.72 27.1525 110.581 27.0948 110.419 27.0948C110.237 27.0948 110.095 27.151 109.993 27.2634C109.894 27.3757 109.843 27.5103 109.84 27.667C109.837 27.8237 109.886 27.9612 109.988 28.0795C110.094 28.1948 110.237 28.2524 110.419 28.2524Z" fill="#1A1344"/>
<path d="M115.449 28.8823C115.048 28.8823 114.739 28.7743 114.522 28.5585C114.309 28.3397 114.202 28.0573 114.202 27.7113C114.202 27.3476 114.31 27.049 114.527 26.8154C114.744 26.5788 115.05 26.462 115.445 26.465C115.744 26.465 115.969 26.5537 116.119 26.7311C116.119 26.5988 116.234 26.4916 116.377 26.4916H116.494C116.701 26.4916 116.869 26.6475 116.869 26.8398V28.7537C116.869 28.9666 116.831 29.1543 116.754 29.3169C116.681 29.4825 116.581 29.6126 116.453 29.7073C116.329 29.8048 116.19 29.8773 116.037 29.9246C115.884 29.9749 115.723 30 115.555 30C115.217 30 114.919 29.9128 114.661 29.7383C114.525 29.6451 114.425 29.5371 114.361 29.4143C114.267 29.2321 114.455 29.0597 114.673 29.0597H114.812C114.953 29.0597 115.086 29.177 115.206 29.246C115.301 29.2992 115.41 29.3243 115.531 29.3214C115.687 29.3184 115.821 29.2726 115.932 29.1839C116.047 29.0952 116.109 28.9532 116.119 28.7581V28.6339C115.966 28.7995 115.743 28.8823 115.449 28.8823ZM115.535 27.1303C115.351 27.1303 115.207 27.1894 115.105 27.3077C115.003 27.426 114.954 27.5635 114.957 27.7202C114.96 27.8799 115.018 28.0041 115.129 28.0928C115.244 28.1785 115.379 28.2214 115.535 28.2214C115.692 28.2184 115.827 28.1726 115.942 28.0839C116.06 27.9922 116.119 27.8681 116.119 27.7113C116.119 27.5517 116.061 27.4156 115.946 27.3033C115.832 27.188 115.695 27.1303 115.535 27.1303Z" fill="#1A1344"/>
<path d="M121.991 27.6847C121.991 27.7793 121.981 27.871 121.962 27.9597H120.108C120.152 28.0662 120.226 28.149 120.328 28.2081C120.43 28.2643 120.541 28.2938 120.662 28.2968C120.768 28.2968 120.862 28.2781 120.943 28.2408C121.054 28.1897 121.168 28.1327 121.292 28.1327C121.596 28.1327 121.804 28.4228 121.575 28.61C121.525 28.651 121.471 28.6885 121.413 28.7226C121.174 28.8586 120.911 28.9237 120.624 28.9178C120.267 28.9118 119.96 28.801 119.702 28.5851C119.447 28.3663 119.319 28.0662 119.319 27.6847C119.319 27.4866 119.357 27.3077 119.434 27.148C119.51 26.9854 119.612 26.8553 119.74 26.7577C119.87 26.6601 120.014 26.5862 120.17 26.5359C120.329 26.4827 120.495 26.4561 120.667 26.4561C121.027 26.4591 121.338 26.5685 121.599 26.7843C121.86 27.0002 121.991 27.3003 121.991 27.6847ZM120.136 27.4142H121.169C121.134 27.2988 121.068 27.2116 120.973 27.1525C120.881 27.0933 120.771 27.0638 120.643 27.0638C120.525 27.0638 120.42 27.0948 120.328 27.1569C120.238 27.216 120.175 27.3018 120.136 27.4142Z" fill="#1A1344"/>
<path d="M124.409 26.8442C124.409 26.6495 124.58 26.4916 124.789 26.4916H124.911C125.054 26.4916 125.169 26.5988 125.169 26.7311C125.325 26.5478 125.58 26.4561 125.934 26.4561C126.562 26.465 126.872 26.8361 126.866 27.5694V28.5363C126.866 28.7323 126.695 28.8911 126.484 28.8911C126.273 28.8911 126.101 28.7323 126.101 28.5363V27.5738C126.101 27.4201 126.062 27.3033 125.982 27.2234C125.905 27.1436 125.811 27.1037 125.7 27.1037C125.576 27.1037 125.463 27.148 125.361 27.2367C125.259 27.3254 125.208 27.4422 125.208 27.5871V28.5208C125.208 28.7253 125.029 28.8911 124.808 28.8911C124.588 28.8911 124.409 28.7253 124.409 28.5208V26.8442Z" fill="#1A1344"/>
<path d="M131.035 28.1031C131.156 27.988 131.297 27.871 131.471 27.871C131.711 27.871 131.902 28.0736 131.796 28.2733C131.757 28.3452 131.711 28.4122 131.657 28.4742C131.514 28.6398 131.345 28.7581 131.151 28.8291C130.959 28.8971 130.755 28.9237 130.539 28.9089C130.325 28.8971 130.128 28.8468 129.946 28.7581C129.768 28.6664 129.618 28.5274 129.497 28.3412C129.379 28.1549 129.32 27.9375 129.32 27.6892C129.32 27.4408 129.379 27.2234 129.497 27.0372C129.618 26.8509 129.768 26.7134 129.946 26.6247C130.128 26.533 130.327 26.4812 130.544 26.4694C130.76 26.4546 130.964 26.4827 131.155 26.5537C131.347 26.6217 131.514 26.74 131.657 26.9085C131.712 26.9714 131.758 27.0393 131.797 27.1124C131.902 27.3108 131.712 27.5117 131.474 27.5117C131.299 27.5117 131.158 27.3913 131.034 27.2768C131.001 27.2461 130.964 27.2194 130.921 27.1968C130.797 27.1288 130.671 27.1037 130.544 27.1214C130.416 27.1362 130.303 27.1953 130.204 27.2988C130.105 27.3994 130.056 27.5295 130.056 27.6892C130.056 27.8488 130.105 27.9804 130.204 28.0839C130.303 28.1844 130.416 28.2436 130.544 28.2613C130.671 28.2791 130.797 28.2539 130.921 28.1859C130.964 28.1626 131.002 28.135 131.035 28.1031Z" fill="#1A1344"/>
<path d="M135.436 27.8666L135.627 27.2589L135.833 26.7657C135.902 26.6005 136.073 26.4916 136.264 26.4916H136.607C136.673 26.4916 136.726 26.5412 136.726 26.6025C136.169 27.9086 135.784 28.8141 135.57 29.3189C135.501 29.4837 135.33 29.5919 135.139 29.5919H134.791C134.727 29.5919 134.676 29.5443 134.676 29.4855L135.011 28.696L134.15 26.6025C134.15 26.5412 134.204 26.4916 134.27 26.4916H134.615C134.808 26.4916 134.98 26.6012 135.049 26.7674L135.254 27.2589L135.436 27.8666Z" fill="#1A1344"/>
<path d="M9.84143 6.2C11.1584 6.2 12.3676 6.43333 13.4691 6.9C14.5945 7.34445 15.5643 7.96667 16.3784 8.76667C17.1926 9.56667 17.8271 10.5 18.2821 11.5667C18.737 12.6333 18.9645 13.7778 18.9645 15C18.9645 16.2 18.737 17.3333 18.2821 18.4C17.8271 19.4667 17.1926 20.4 16.3784 21.2C15.5643 22 14.5945 22.6333 13.4691 23.1C12.3676 23.5444 11.1584 23.7667 9.84143 23.7667C9.13968 23.7667 8.47937 23.7077 7.86052 23.5897C6.76838 23.3815 6.31835 22.2608 6.73409 21.3007L6.80234 21.1431C7.20971 20.2023 8.38979 19.7667 9.48226 19.7667C10.1767 19.7667 10.8352 19.6556 11.4577 19.4333C12.0803 19.1889 12.643 18.8333 13.1459 18.3667C14.1516 17.4333 14.6544 16.3111 14.6544 15C14.6544 13.6667 14.1516 12.5333 13.1459 11.6C12.0923 10.6667 10.8711 10.2 9.48226 10.2C8.04555 10.2 6.82435 10.6667 5.81866 11.6C4.81296 12.5333 4.31012 13.6667 4.31012 15V28C4.31012 29.1046 3.34526 30 2.15506 30C0.964853 30 0 29.1046 0 28V8.63334C0 7.52877 0.964853 6.63333 2.15506 6.63333H2.87341C3.66688 6.63333 4.31012 7.23029 4.31012 7.96667C5.00453 7.45556 5.80669 7.03333 6.7166 6.7C7.62651 6.36667 8.66813 6.2 9.84143 6.2Z" fill="#1A1344"/>
<path d="M26.5131 21.3333C26.5131 22.4379 25.5483 23.3333 24.3581 23.3333C23.1678 23.3333 22.203 22.4379 22.203 21.3333V2C22.203 0.89543 23.1678 0 24.3581 0C25.5483 0 26.5131 0.89543 26.5131 2V21.3333Z" fill="#1A1344"/>
<path d="M46.5636 6.63333C47.7538 6.63333 48.7186 7.52876 48.7186 8.63333V21.3333C48.7186 22.4379 47.7538 23.3333 46.5636 23.3333C45.3734 23.3333 44.4085 22.4379 44.4085 21.3333V15C44.4085 13.6667 43.9057 12.5333 42.9 11.6C41.8943 10.6667 40.6731 10.2 39.2364 10.2C38.542 10.2 37.8715 10.3222 37.225 10.5667C36.6024 10.8111 36.0517 11.1556 35.5728 11.6C34.5671 12.5333 34.0642 13.6667 34.0642 15C34.0642 16.3111 34.5671 17.4333 35.5728 18.3667C36.0517 18.8333 36.6024 19.1889 37.225 19.4333C37.8715 19.6556 38.542 19.7667 39.2364 19.7667C40.3288 19.7667 41.5089 20.2023 41.9163 21.1431L41.9845 21.3007C42.4003 22.2608 41.9503 23.3815 40.8581 23.5897C40.2393 23.7077 39.579 23.7667 38.8772 23.7667C37.5602 23.7667 36.339 23.5444 35.2136 23.1C34.1121 22.6333 33.1543 22 32.3402 21.2C31.5261 20.4 30.8915 19.4667 30.4366 18.4C29.9816 17.3333 29.7541 16.2 29.7541 15C29.7541 13.7778 29.9816 12.6333 30.4366 11.5667C30.8915 10.5 31.5261 9.56667 32.3402 8.76667C33.1543 7.96667 34.1121 7.34445 35.2136 6.9C36.339 6.43333 37.5602 6.2 38.8772 6.2C40.0505 6.2 41.0921 6.36667 42.002 6.7C42.9119 7.03333 43.7141 7.45556 44.4085 7.96667C44.4085 7.23029 45.0518 6.63333 45.8452 6.63333H46.5636Z" fill="#1A1344"/>
<path d="M62.2066 20.8483C62.5467 22.1106 61.5179 23.3333 60.1159 23.3333H58.9251C58.111 23.3333 57.3448 23.1889 56.6264 22.9C55.9081 22.6111 55.2855 22.2222 54.7587 21.7333C54.2319 21.2222 53.8129 20.6333 53.5016 19.9667C53.1903 19.3 53.0346 18.5889 53.0346 17.8333V4.86155C53.0346 3.94382 53.7077 3.14385 54.667 2.92127C56.0272 2.6057 57.3448 3.56041 57.3448 4.86155V8.66667H58.1764C59.1653 8.66667 60.0273 9.29126 60.2671 10.1816C60.6071 11.4439 59.5784 12.6667 58.1764 12.6667H57.3448V17.8333C57.3448 18.2556 57.5004 18.6111 57.8117 18.9C58.123 19.1889 58.4941 19.3333 58.9251 19.3333H60.1159C61.1048 19.3333 61.9668 19.9579 62.2066 20.8483Z" fill="#1A1344"/>
<path d="M74.4149 2.38585C74.4149 3.27732 73.6013 3.96444 72.7268 4.33333C72.2239 4.53333 71.769 4.81111 71.3619 5.16667C70.9788 5.52222 70.6675 5.94445 70.428 6.43333C70.1886 6.9 70.0689 7.41111 70.0689 7.96667H70.9364C71.9253 7.96667 72.7873 8.59126 73.0271 9.4816C73.3671 10.7439 72.3384 11.9667 70.9364 11.9667H70.0689V28C70.0689 29.1046 69.104 30 67.9138 30C66.7236 30 65.7588 29.1046 65.7588 28V7.96667C65.7827 6.9 66.0102 5.88889 66.4412 4.93333C66.8722 3.95556 67.4948 3.08889 68.3089 2.33333C69.123 1.57778 70.0569 1 71.1105 0.6C71.3926 0.492882 71.6782 0.400106 71.9672 0.321673C73.2821 -0.03516 74.4149 1.03066 74.4149 2.30204V2.38585Z" fill="#1A1344"/>
<path d="M86.4134 10.2C84.9766 10.2 83.7555 10.6667 82.7498 11.6C81.7441 12.5333 81.2412 13.6667 81.2412 15C81.2412 16.3111 81.7441 17.4333 82.7498 18.3667C83.2287 18.8333 83.7794 19.1889 84.402 19.4333C85.0485 19.6556 85.7189 19.7667 86.4134 19.7667C87.1078 19.7667 87.7663 19.6556 88.3888 19.4333C89.0114 19.1889 89.5741 18.8333 90.077 18.3667C91.0827 17.4333 91.5855 16.3111 91.5855 15C91.5855 13.6667 91.0827 12.5333 90.077 11.6C89.0234 10.6667 87.8022 10.2 86.4134 10.2ZM86.4134 6.2C87.7303 6.2 88.9635 6.43333 90.1129 6.9C91.2622 7.34445 92.2679 7.96667 93.13 8.76667C93.992 9.56667 94.6624 10.5 95.1413 11.5667C95.6442 12.6333 95.8956 13.7778 95.8956 15C95.8956 16.2 95.6442 17.3333 95.1413 18.4C94.6624 19.4667 93.992 20.4 93.13 21.2C92.2679 22 91.2622 22.6333 90.1129 23.1C88.9635 23.5444 87.7303 23.7667 86.4134 23.7667C85.0964 23.7667 83.8632 23.5444 82.7138 23.1C81.5645 22.6333 80.5588 22 79.6967 21.2C78.8347 20.4 78.1523 19.4667 77.6495 18.4C77.1706 17.3333 76.9311 16.2 76.9311 15C76.9311 13.7778 77.1706 12.6333 77.6495 11.5667C78.1523 10.5 78.8347 9.56667 79.6967 8.76667C80.5588 7.96667 81.5645 7.34445 82.7138 6.9C83.8632 6.43333 85.0964 6.2 86.4134 6.2Z" fill="#1A1344"/>
<path d="M103.434 7.93333C104.105 7.42222 104.859 7 105.697 6.66667C105.947 6.56991 106.207 6.48719 106.475 6.41852C107.623 6.12493 108.607 7.0621 108.607 8.16667C108.607 9.27124 107.598 10.1132 106.509 10.5578C105.939 10.7904 105.417 11.1267 104.943 11.5667C103.937 12.5444 103.434 13.6778 103.434 14.9667V21.3333C103.434 22.4379 102.47 23.3333 101.279 23.3333C100.089 23.3333 99.1243 22.4379 99.1243 21.3333V8.63333C99.1243 7.52876 100.089 6.63333 101.279 6.63333H102.034C102.807 6.63333 103.434 7.21536 103.434 7.93333Z" fill="#1A1344"/>
<path d="M131.074 6.2C132.079 6.2 132.953 6.37778 133.696 6.73333C134.462 7.08889 135.084 7.57778 135.563 8.2C136.042 8.82222 136.401 9.54445 136.641 10.3667C136.88 11.1889 137 12.0778 137 13.0333V21.3333C137 22.4379 136.035 23.3333 134.845 23.3333C133.655 23.3333 132.69 22.4379 132.69 21.3333V13.0333C132.69 12.2556 132.391 11.5889 131.792 11.0333C131.217 10.4778 130.499 10.2 129.637 10.2C128.775 10.2 128.057 10.4778 127.482 11.0333C126.883 11.5889 126.584 12.2556 126.584 13.0333V21.3333C126.584 22.4379 125.619 23.3333 124.429 23.3333C123.239 23.3333 122.274 22.4379 122.274 21.3333V13.0333C122.274 12.2556 121.974 11.5889 121.376 11.0333C121.088 10.7444 120.753 10.5333 120.37 10.4C120.011 10.2667 119.628 10.2 119.221 10.2C118.335 10.2 117.604 10.4778 117.03 11.0333C116.431 11.5889 116.132 12.2556 116.132 13.0333V21.3333C116.132 22.4379 115.167 23.3333 113.977 23.3333C112.787 23.3333 111.822 22.4379 111.822 21.3333V8.66667C111.822 7.5621 112.787 6.66667 113.977 6.66667H114.551C115.424 6.66667 116.132 7.32332 116.132 8.13333C116.826 7.57778 117.557 7.12222 118.323 6.76667C119.089 6.38889 119.867 6.2 120.657 6.2C121.735 6.2 122.621 6.4 123.315 6.8C124.01 7.2 124.632 7.75556 125.183 8.46667C125.83 7.82222 126.668 7.28889 127.697 6.86667C128.727 6.42222 129.852 6.2 131.074 6.2Z" fill="#1A1344"/>
</svg>
