<svg width="40" height="30" viewBox="0 0 40 30" fill="none" xmlns="http://www.w3.org/2000/svg">
<path d="M23.7241 20.195C21.977 18.9286 21.1034 17.1932 21.1034 14.9888C21.1034 12.7844 21.977 11.049 23.7241 9.78264L36.7586 0.425639C37.4023 -0.0902869 38.092 -0.137189 38.8276 0.284931C39.6092 0.660149 40 1.26988 40 2.11412V2.32518C40 4.95171 38.9195 7.01541 36.7586 8.51628L27.5172 14.8481C27.4713 14.8481 27.4483 14.895 27.4483 14.9888C27.4483 15.0826 27.4713 15.1295 27.5172 15.1295L36.7586 21.4613C38.9195 22.9622 40 25.0259 40 27.6524V27.8635C40 28.7077 39.6092 29.3409 38.8276 29.763C38.092 30.1382 37.4023 30.0679 36.7586 29.552L23.7241 20.195ZM15.6552 0.425639C16.2988 -0.0902869 16.9885 -0.137189 17.7241 0.284931C18.4598 0.660149 18.8276 1.26988 18.8276 2.11412V2.32518C18.8276 4.95171 17.7471 7.01541 15.5862 8.51628L6.34483 14.8481C6.29885 14.8481 6.27586 14.895 6.27586 14.9888C6.27586 15.0826 6.29885 15.1295 6.34483 15.1295L15.5862 21.4613C17.7471 22.9622 18.8276 25.0259 18.8276 27.6524V27.8635C18.8276 28.7077 18.4598 29.3409 17.7241 29.763C16.9885 30.1382 16.2988 30.0679 15.6552 29.552L2.62069 20.195C0.873563 18.9286 0 17.1932 0 14.9888C0 12.7844 0.873563 11.049 2.62069 9.78264L15.6552 0.425639Z" fill="url(#paint0_linear)"/>
<defs>
<linearGradient id="paint0_linear" x1="40.2661" y1="0.214579" x2="-3.34073" y2="24.6273" gradientUnits="userSpaceOnUse">
<stop stop-color="#9A1DFF"/>
<stop offset="1" stop-color="#5F1BFF"/>
</linearGradient>
</defs>
</svg>
