<svg width="40" height="30" viewBox="0 0 40 30" fill="none" xmlns="http://www.w3.org/2000/svg">
<path d="M16.2759 9.80505C18.023 11.0714 18.8966 12.8068 18.8966 15.0112C18.8966 17.2156 18.023 18.951 16.2759 20.2174L3.24138 29.5744C2.5977 30.0903 1.90805 30.1372 1.17241 29.7151C0.390801 29.3398 1.11016e-07 28.7301 1.84822e-07 27.8859L2.03274e-07 27.6748C4.32892e-07 25.0483 1.08046 22.9846 3.24138 21.4837L12.4828 15.1519C12.5287 15.1519 12.5517 15.105 12.5517 15.0112C12.5517 14.9174 12.5287 14.8705 12.4828 14.8705L3.24138 8.53868C1.08046 7.03781 2.18783e-06 4.97411 2.41745e-06 2.34758L2.4359e-06 2.13652C2.50971e-06 1.29228 0.390803 0.659098 1.17242 0.236977C1.90805 -0.13824 2.5977 -0.0678877 3.24138 0.448037L16.2759 9.80505ZM24.3448 29.5744C23.7012 30.0903 23.0115 30.1372 22.2759 29.7151C21.5402 29.3398 21.1724 28.7301 21.1724 27.8859L21.1724 27.6748C21.1724 25.0483 22.2529 22.9846 24.4138 21.4837L33.6552 15.1519C33.7012 15.1519 33.7241 15.105 33.7241 15.0112C33.7241 14.9174 33.7012 14.8705 33.6552 14.8705L24.4138 8.53869C22.2529 7.03781 21.1724 4.97411 21.1724 2.34758L21.1724 2.13652C21.1724 1.29228 21.5402 0.6591 22.2759 0.236979C23.0115 -0.138238 23.7012 -0.0678859 24.3448 0.448039L37.3793 9.80505C39.1264 11.0714 40 12.8068 40 15.0112C40 17.2156 39.1264 18.951 37.3793 20.2174L24.3448 29.5744Z" fill="url(#paint0_linear)"/>
<defs>
<linearGradient id="paint0_linear" x1="-0.26612" y1="29.7854" x2="43.3407" y2="5.37272" gradientUnits="userSpaceOnUse">
<stop stop-color="#9A1DFF"/>
<stop offset="1" stop-color="#5F1BFF"/>
</linearGradient>
</defs>
</svg>
